<svg width="37" height="44" viewBox="0 0 37 44" fill="none" xmlns="http://www.w3.org/2000/svg">
<g filter="url(#filter0_d_2_931)">
<path fill-rule="evenodd" clip-rule="evenodd" d="M5.31696 18.5512L5.86554 17.7151L6.22735 17.9525L30.7282 1.83994L31.2777 2.67545L7.13838 18.5502L29.4696 33.2022L28.921 34.0383L6.22798 19.149L5.86642 19.3867L5.31696 18.5512Z" fill="#F5702C"/>
<path d="M5.31696 18.5512L4.48086 18.0026L4.12051 18.5518L4.48144 19.1007L5.31696 18.5512ZM5.86554 17.7151L6.41412 16.879L5.57802 16.3304L5.02944 17.1665L5.86554 17.7151ZM6.22735 17.9525L5.67877 18.7886L6.22798 19.149L6.77682 18.788L6.22735 17.9525ZM30.7282 1.83994L31.5638 1.29047L31.0143 0.454955L30.1788 1.00442L30.7282 1.83994ZM31.2777 2.67545L31.8272 3.51097L32.6627 2.96151L32.1132 2.12599L31.2777 2.67545ZM7.13838 18.5502L6.58892 17.7147L5.31696 18.5512L6.5898 19.3863L7.13838 18.5502ZM29.4696 33.2022L30.3057 33.7508L30.8542 32.9147L30.0182 32.3661L29.4696 33.2022ZM28.921 34.0383L28.3724 34.8744L29.2085 35.423L29.7571 34.5869L28.921 34.0383ZM6.22798 19.149L6.77656 18.3129L6.22735 17.9525L5.67852 18.3134L6.22798 19.149ZM5.86642 19.3867L5.0309 19.9362L5.58036 20.7717L6.41588 20.2222L5.86642 19.3867ZM6.15306 19.0998L6.70164 18.2637L5.02944 17.1665L4.48086 18.0026L6.15306 19.0998ZM5.31696 18.5512L5.67877 18.7886L6.77593 17.1164L6.41412 16.879L5.31696 18.5512ZM6.77682 18.788L31.2777 2.67545L30.1788 1.00442L5.67789 17.117L6.77682 18.788ZM29.8927 2.3894L30.4422 3.22492L32.1132 2.12599L31.5638 1.29047L29.8927 2.3894ZM30.7282 1.83994L6.58892 17.7147L7.68784 19.3858L31.8272 3.51097L30.7282 1.83994ZM6.5898 19.3863L28.921 34.0383L30.0182 32.3661L7.68696 17.7141L6.5898 19.3863ZM28.6335 32.6536L28.0849 33.4897L29.7571 34.5869L30.3057 33.7508L28.6335 32.6536ZM29.4696 33.2022L6.77656 18.3129L5.6794 19.985L28.3724 34.8744L29.4696 33.2022ZM5.67852 18.3134L5.31696 18.5512L6.41588 20.2222L6.77745 19.9845L5.67852 18.3134ZM6.70194 18.8373L6.15248 18.0017L4.48144 19.1007L5.0309 19.9362L6.70194 18.8373Z" fill="#F5702C"/>
</g>
<defs>
<filter id="filter0_d_2_931" x="0.120514" y="0.454834" width="36.5422" height="42.968" filterUnits="userSpaceOnUse" color-interpolation-filters="sRGB">
<feFlood flood-opacity="0" result="BackgroundImageFix"/>
<feColorMatrix in="SourceAlpha" type="matrix" values="0 0 0 0 0 0 0 0 0 0 0 0 0 0 0 0 0 0 127 0" result="hardAlpha"/>
<feOffset dy="4"/>
<feGaussianBlur stdDeviation="2"/>
<feComposite in2="hardAlpha" operator="out"/>
<feColorMatrix type="matrix" values="0 0 0 0 0 0 0 0 0 0 0 0 0 0 0 0 0 0 0.25 0"/>
<feBlend mode="normal" in2="BackgroundImageFix" result="effect1_dropShadow_2_931"/>
<feBlend mode="normal" in="SourceGraphic" in2="effect1_dropShadow_2_931" result="shape"/>
</filter>
</defs>
</svg>
