<svg width="42" height="53" viewBox="0 0 42 53" fill="none" xmlns="http://www.w3.org/2000/svg">
  <path d="M0.0319824 26.8001C0.0319824 18.4001 1.80798 11.9681 5.35998 7.50408C8.91198 2.99208 13.976 0.736084 20.552 0.736084C24.104 0.736084 27.176 1.36008 29.768 2.60808C32.36 3.85608 34.496 5.63208 36.176 7.93608C37.904 10.1921 39.176 12.9281 39.992 16.1441C40.808 19.3121 41.216 22.8641 41.216 26.8001C41.216 35.2001 39.416 41.6561 35.816 46.1681C32.264 50.6321 27.176 52.8641 20.552 52.8641C17.048 52.8641 14 52.2401 11.408 50.9921C8.86398 49.7441 6.72798 47.9921 4.99998 45.7361C3.31998 43.4321 2.07198 40.6961 1.25598 37.5281C0.439983 34.3121 0.0319824 30.7361 0.0319824 26.8001ZM6.36798 26.8001C6.36798 29.5841 6.63198 32.2241 7.15998 34.7201C7.73598 37.2161 8.59998 39.4241 9.75198 41.3441C10.904 43.2161 12.368 44.7281 14.144 45.8801C15.968 46.9841 18.104 47.5361 20.552 47.5361C25.016 47.5361 28.52 45.8561 31.064 42.4961C33.608 39.0881 34.88 33.8561 34.88 26.8001C34.88 24.0641 34.592 21.4481 34.016 18.9521C33.488 16.4081 32.624 14.2001 31.424 12.3281C30.272 10.4081 28.784 8.89608 26.96 7.79208C25.184 6.64008 23.048 6.06408 20.552 6.06408C16.136 6.06408 12.656 7.76808 10.112 11.1761C7.61598 14.5361 6.36798 19.7441 6.36798 26.8001Z" fill="#FE5B00" />
</svg>