<svg width="48" height="63" viewBox="0 0 48 63" fill="none" xmlns="http://www.w3.org/2000/svg">
  <path d="M35 20L24 26.5L12.5 20L1.5 28L2.5 41L24 61.5L45.5 41L46 28L35 20Z" stroke="#151716" stroke-width="2" />
  <path d="M23.5 8L21 13L15.5 14L12 10.5L11.5 1.5L20.5 3.5L23.5 8Z" fill="#CACACA" stroke="#151716" stroke-width="2" />
  <path d="M25.5 11.5L27.2917 16.12L32.5 16.5L35 13.5L36 7.5L28.5 8L25.5 11.5Z" fill="#CACACA" stroke="#151716" stroke-width="1.6" />
  <path d="M24 27L25 17.5L31.5 12" stroke="#151716" stroke-linecap="round" />
  <path d="M24 26L23 16L17 9" stroke="#151716" stroke-linecap="round" />
</svg>