<svg width="51" height="49" viewBox="0 0 51 49" fill="none" xmlns="http://www.w3.org/2000/svg">
  <path d="M49.5 43.9302V40.5V10C49.5 9 49 8.5 48 8.5H43M5.5 18.5V10C5.5 9 6 8.5 7 8.5H35.5M5.5 18.5L7.29289 16.7071C7.68342 16.3166 8.31658 16.3166 8.70711 16.7071L11.5 19.5M5.5 18.5L1.71459 22.2854C1.32116 22.6788 1.32452 23.3178 1.72207 23.707L5.5 27.4062M5.5 27.4062V39C5.5 40 6 40.5 7 40.5H18.8723M5.5 27.4062L18.8723 40.5M18.8723 40.5L24.293 45.8077C24.6847 46.1912 25.3121 46.1879 25.6997 45.8003L31.5 40L27.7136 36.0958M35.5 8.5L41.8392 1.70796C42.2075 1.31334 42.8226 1.28224 43.2288 1.6377L45.7474 3.8415C46.1631 4.20518 46.2052 4.83694 45.8415 5.25258L43 8.5M35.5 8.5L29 15.5M43 8.5L33 19.5M33 19.5L27 22M33 19.5L29 15.5M27 22L29 15.5M27 22H38.5M11.5 19.5L8.09375 23M11.5 19.5L15.5938 23.6809M15.5938 23.6809L12 27M15.5938 23.6809L19.8229 28M19.8229 28L16.5 31M19.8229 28L23.9273 32.1917M23.9273 32.1917L21 35M23.9273 32.1917L27.7136 36.0958M27.7136 36.0958L25 39" stroke="#151716" stroke-width="2" stroke-linecap="round" />
  <path d="M42 22H44.5" stroke="#151716" stroke-width="2" stroke-linecap="round" />
  <path d="M46.7676 47.1585C50.5394 47.1585 50.2822 40.49 46.7676 40.49H41.6849V47.1585H46.7676Z" fill="#CACACA" />
  <path d="M31 40.49C34.9436 40.49 39.048 40.49 41.6849 40.49M41.6849 40.49C43.2516 40.49 45.6622 40.49 46.7676 40.49C50.2822 40.49 50.5394 47.1585 46.7676 47.1585H41.6849V40.49Z" stroke="#151716" stroke-width="2" />
</svg>